<?xml version="1.0" encoding="UTF-8" standalone="no"?>
<!DOCTYPE svg PUBLIC "-//W3C//DTD SVG 1.1//EN" "http://www.w3.org/Graphics/SVG/1.1/DTD/svg11.dtd">
<svg width="100%" height="100%" viewBox="0 0 16 16" version="1.1" xmlns="http://www.w3.org/2000/svg" xmlns:xlink="http://www.w3.org/1999/xlink" xml:space="preserve" xmlns:serif="http://www.serif.com/" style="fill-rule:evenodd;clip-rule:evenodd;stroke-linejoin:round;stroke-miterlimit:1.41421;">
    <g id="g5360" transform="matrix(0.0533333,0,0,0.0533333,0,0)">
        <rect x="112.475" y="105.476" width="90.638" height="101.043" style="fill:rgb(235,235,235);"/>
        <g id="path4156" transform="matrix(1.37835,0,0,1.37835,-56.7531,-50.893)">
            <path d="M149.938,79.223C149.938,79.223 86.719,79.223 70.852,83.346C62.356,85.72 55.36,92.715 52.986,101.336C48.863,117.203 48.863,150.063 48.863,150.063C48.863,150.063 48.863,183.047 52.986,198.664C55.36,207.285 62.231,214.155 70.852,216.529C86.844,220.777 149.938,220.777 149.938,220.777C149.938,220.777 213.282,220.777 229.148,216.654C237.769,214.28 244.64,207.535 246.889,198.789C251.137,183.047 251.137,150.188 251.137,150.188C251.137,150.188 251.262,117.203 246.889,101.336C244.64,92.715 237.769,85.845 229.148,83.596C213.282,79.223 149.938,79.223 149.938,79.223ZM129.822,119.703L182.422,150.063L129.822,180.297L129.822,119.703Z" style="fill:rgb(255,0,0);fill-rule:nonzero;"/>
        </g>
        <g transform="matrix(1.37835,0,0,1.37835,-56.7531,-50.8931)">
            <path d="M79.995,53.468L80.165,53.481L80.333,53.502L80.501,53.531L80.667,53.567L80.831,53.612L80.993,53.664L81.152,53.723L81.309,53.79L81.462,53.865L81.611,53.946L81.757,54.034L81.898,54.129L82.034,54.231L82.166,54.338L82.292,54.452L82.413,54.572L82.528,54.697L82.637,54.827L82.74,54.963L82.837,55.103L82.927,55.247L83.01,55.396L83.085,55.548L83.154,55.703L83.215,55.862L83.269,56.023L83.315,56.187L83.354,56.353L83.385,56.52L83.407,56.689L83.422,56.858L83.429,57.028L83.439,57.592L83.464,58.1L83.506,58.616L83.563,59.141L83.636,59.675L83.723,60.218L83.823,60.769L83.933,61.317L84.196,62.482L84.494,63.665L84.821,64.883L85.166,66.136L85.52,67.425L85.869,68.751L86.2,70.101L86.36,70.807L86.508,71.513L86.646,72.23L86.771,72.957L86.883,73.694L86.978,74.442L87.056,75.201L87.114,75.97L87.15,76.749L87.162,77.481L87.161,77.651L87.151,77.821L87.134,77.99L87.109,78.158L87.076,78.325L87.035,78.49L86.987,78.653L86.931,78.814L86.867,78.971L86.796,79.126L86.718,79.277L86.633,79.424L86.541,79.568L86.443,79.706L86.338,79.84L86.227,79.969L86.11,80.093L85.988,80.211L85.86,80.323L85.727,80.429L85.589,80.528L85.446,80.621L85.3,80.707L85.149,80.787L84.995,80.859L84.838,80.924L84.678,80.981L84.515,81.031L84.351,81.073L84.184,81.107L84.016,81.134L83.847,81.152L83.677,81.163L83.507,81.166L83.337,81.16L83.168,81.147L82.999,81.126L82.831,81.097L82.665,81.06L82.501,81.015L82.339,80.963L82.18,80.903L82.024,80.836L81.871,80.762L81.722,80.68L81.576,80.592L81.435,80.497L81.299,80.395L81.168,80.287L81.041,80.173L80.921,80.053L80.806,79.928L80.697,79.797L80.594,79.662L80.498,79.522L80.408,79.377L80.325,79.229L80.249,79.076L80.181,78.921L80.12,78.762L80.066,78.6L80.02,78.437L79.982,78.271L79.952,78.104L79.929,77.935L79.914,77.766L79.908,77.596L79.898,76.975L79.872,76.411L79.829,75.843L79.77,75.271L79.697,74.696L79.609,74.116L79.508,73.533L79.395,72.944L79.271,72.351L79.138,71.763L78.838,70.54L78.514,69.31L78.171,68.059L77.82,66.787L77.472,65.49L77.139,64.167L76.838,62.833L76.697,62.134L76.571,61.439L76.458,60.735L76.362,60.024L76.283,59.303L76.224,58.574L76.187,57.836L76.175,57.153L76.176,56.982L76.185,56.813L76.202,56.643L76.227,56.475L76.26,56.308L76.301,56.143L76.349,55.98L76.405,55.819L76.468,55.662L76.539,55.507L76.616,55.356L76.701,55.208L76.793,55.065L76.891,54.926L76.996,54.792L77.106,54.663L77.223,54.539L77.346,54.421L77.473,54.309L77.606,54.203L77.744,54.103L77.886,54.01L78.033,53.923L78.183,53.844L78.337,53.772L78.494,53.707L78.654,53.649L78.817,53.599L78.982,53.557L79.148,53.522L79.316,53.495L79.485,53.477L79.655,53.466L79.825,53.463L79.995,53.468Z"/>
        </g>
        <g transform="matrix(1.37835,0,0,1.37835,-56.7531,-50.8931)">
            <path d="M95.293,44.624L95.489,44.64L95.683,44.667L95.876,44.704L96.067,44.751L96.255,44.809L96.439,44.876L96.62,44.954L96.796,45.041L96.967,45.138L97.132,45.244L97.292,45.359L97.445,45.482L97.591,45.613L97.73,45.752L97.861,45.898L97.984,46.051L98.099,46.211L98.205,46.376L98.301,46.547L98.389,46.723L98.466,46.904L98.534,47.088L98.592,47.276L98.639,47.467L98.676,47.659L98.703,47.854L98.719,48.05L98.724,48.246L98.724,75.08L98.719,75.276L98.703,75.472L98.676,75.667L98.639,75.86L98.592,76.05L98.534,76.238L98.466,76.422L98.389,76.603L98.301,76.779L98.205,76.95L98.099,77.116L97.984,77.275L97.861,77.428L97.73,77.574L97.591,77.713L97.445,77.845L97.292,77.968L97.132,78.082L96.967,78.188L96.796,78.285L96.62,78.372L96.439,78.45L96.255,78.517L96.067,78.575L95.876,78.622L95.683,78.66L95.489,78.686L95.293,78.702L95.096,78.707L94.9,78.702L94.704,78.686L94.51,78.66L94.317,78.622L94.126,78.575L93.938,78.517L93.754,78.45L93.573,78.372L93.397,78.285L93.226,78.188L93.061,78.082L92.901,77.968L92.748,77.845L92.602,77.713L92.463,77.574L92.332,77.428L92.209,77.275L92.094,77.116L91.988,76.95L91.891,76.779L91.804,76.603L91.727,76.422L91.659,76.238L91.601,76.05L91.554,75.86L91.517,75.667L91.49,75.472L91.474,75.276L91.469,75.08L91.469,48.246L91.474,48.05L91.49,47.854L91.517,47.659L91.554,47.467L91.601,47.276L91.659,47.088L91.727,46.904L91.804,46.723L91.891,46.547L91.988,46.376L92.094,46.211L92.209,46.051L92.332,45.898L92.463,45.752L92.602,45.613L92.748,45.482L92.901,45.359L93.061,45.244L93.226,45.138L93.397,45.041L93.573,44.954L93.754,44.876L93.938,44.809L94.126,44.751L94.317,44.704L94.51,44.667L94.704,44.64L94.9,44.624L95.096,44.619L95.293,44.624Z"/>
        </g>
        <g transform="matrix(1.37835,0,0,1.37835,-56.7531,-50.8931)">
            <path d="M111.669,54.853L111.819,54.861L111.968,54.874L112.117,54.894L112.265,54.92L112.411,54.952L112.556,54.99L112.699,55.034L112.841,55.084L112.98,55.14L113.117,55.201L113.251,55.268L113.382,55.341L113.51,55.419L113.635,55.502L113.756,55.59L113.874,55.683L113.987,55.781L114.097,55.884L114.202,55.991L114.302,56.102L114.398,56.217L114.489,56.336L114.575,56.459L114.656,56.585L114.732,56.715L114.802,56.847L114.867,56.982L114.926,57.12L114.979,57.26L115.027,57.403L115.068,57.547L115.104,57.692L115.133,57.839L115.157,57.988L115.174,58.136L115.185,58.286L115.19,58.436L115.188,58.586L115.172,59.15L115.115,59.807L115.027,60.448L114.91,61.072L114.769,61.678L114.608,62.268L114.429,62.843L114.237,63.402L114.034,63.949L113.817,64.495L113.382,65.512L112.931,66.507L112.485,67.469L112.058,68.399L111.663,69.3L111.302,70.19L111.15,70.599L111.007,71.015L110.879,71.423L110.766,71.822L110.67,72.214L110.591,72.597L110.529,72.973L110.485,73.342L110.458,73.705L110.447,74.156L110.44,74.306L110.427,74.455L110.407,74.604L110.382,74.752L110.351,74.899L110.313,75.044L110.27,75.187L110.22,75.329L110.165,75.468L110.104,75.605L110.038,75.74L109.966,75.871L109.889,76L109.806,76.125L109.718,76.247L109.626,76.364L109.528,76.478L109.426,76.588L109.32,76.694L109.209,76.795L109.094,76.891L108.975,76.983L108.853,77.069L108.727,77.151L108.598,77.227L108.466,77.298L108.331,77.363L108.193,77.423L108.053,77.476L107.911,77.525L107.767,77.567L107.622,77.603L107.475,77.633L107.327,77.657L107.178,77.675L107.029,77.687L106.879,77.692L106.729,77.691L106.579,77.684L106.43,77.671L106.281,77.652L106.133,77.627L105.987,77.595L105.841,77.558L105.698,77.515L105.556,77.465L105.417,77.41L105.28,77.349L105.145,77.283L105.014,77.211L104.885,77.133L104.76,77.051L104.639,76.963L104.521,76.871L104.407,76.773L104.297,76.671L104.191,76.565L104.09,76.454L103.994,76.339L103.902,76.22L103.816,76.098L103.734,75.972L103.658,75.843L103.587,75.711L103.522,75.576L103.463,75.438L103.409,75.298L103.361,75.156L103.318,75.012L103.282,74.867L103.252,74.72L103.228,74.572L103.21,74.423L103.199,74.273L103.193,74.124L103.194,73.974L103.21,73.345L103.262,72.638L103.345,71.947L103.457,71.273L103.592,70.616L103.749,69.976L103.925,69.352L104.115,68.745L104.319,68.154L104.538,67.564L104.978,66.478L105.44,65.428L105.897,64.43L106.336,63.484L106.742,62.589L107.109,61.73L107.263,61.343L107.406,60.958L107.533,60.589L107.642,60.236L107.734,59.9L107.808,59.582L107.864,59.282L107.903,58.999L107.926,58.732L107.937,58.372L107.944,58.223L107.958,58.073L107.978,57.925L108.004,57.777L108.036,57.63L108.074,57.485L108.118,57.342L108.168,57.201L108.223,57.062L108.285,56.925L108.352,56.791L108.424,56.659L108.502,56.531L108.585,56.407L108.674,56.285L108.767,56.168L108.865,56.054L108.967,55.945L109.074,55.84L109.185,55.739L109.3,55.643L109.42,55.552L109.542,55.466L109.669,55.385L109.798,55.31L109.931,55.239L110.066,55.175L110.204,55.116L110.344,55.062L110.486,55.015L110.63,54.973L110.776,54.938L110.923,54.908L111.071,54.885L111.22,54.868L111.369,54.857L111.519,54.852L111.669,54.853Z"/>
        </g>
        <g transform="matrix(1.37835,0,0,1.37835,-56.7531,-50.8931)">
            <path d="M189.984,58.027L190.126,58.034L190.268,58.046L190.409,58.064L190.55,58.088L190.689,58.117L190.828,58.151L190.964,58.191L191.099,58.236L191.233,58.287L191.364,58.342L191.493,58.403L191.619,58.469L191.743,58.54L191.863,58.615L191.981,58.695L192.096,58.78L192.207,58.869L192.314,58.963L192.418,59.06L192.518,59.162L192.614,59.267L192.705,59.376L192.792,59.489L192.875,59.605L192.953,59.724L193.027,59.846L193.095,59.971L193.159,60.099L193.217,60.228L193.271,60.36L193.319,60.495L193.362,60.63L193.399,60.768L193.431,60.907L193.458,61.047L193.479,61.187L193.494,61.329L193.504,61.471L193.508,61.613L193.527,63.327L193.576,65.014L193.646,66.72L193.727,68.451L193.809,70.208L193.881,71.995L193.933,73.814L193.952,75.627L193.951,75.769L193.944,75.912L193.932,76.053L193.914,76.195L193.89,76.335L193.861,76.475L193.827,76.613L193.787,76.75L193.742,76.885L193.691,77.018L193.635,77.149L193.575,77.278L193.509,77.404L193.438,77.528L193.363,77.649L193.282,77.766L193.198,77.881L193.108,77.992L193.015,78.099L192.917,78.203L192.816,78.303L192.71,78.399L192.601,78.49L192.488,78.577L192.372,78.66L192.253,78.738L192.131,78.812L192.006,78.88L191.879,78.944L191.749,79.002L191.617,79.055L191.483,79.103L191.347,79.146L191.21,79.184L191.071,79.216L190.931,79.242L190.79,79.263L190.648,79.279L190.506,79.289L190.364,79.293L190.221,79.292L190.079,79.285L189.937,79.272L189.796,79.254L189.655,79.231L189.516,79.202L189.378,79.167L189.241,79.128L189.106,79.082L188.973,79.032L188.842,78.976L188.713,78.915L188.586,78.85L188.463,78.779L188.342,78.703L188.224,78.623L188.11,78.538L187.999,78.449L187.891,78.356L187.788,78.258L187.688,78.156L187.592,78.051L187.5,77.942L187.413,77.829L187.331,77.713L187.252,77.594L187.179,77.472L187.111,77.347L187.047,77.22L186.989,77.09L186.935,76.958L186.887,76.824L186.844,76.688L186.807,76.55L186.775,76.411L186.748,76.272L186.727,76.131L186.712,75.989L186.702,75.847L186.698,75.705L186.679,73.957L186.63,72.245L186.56,70.524L186.479,68.79L186.398,67.038L186.325,65.266L186.273,63.471L186.254,61.693L186.255,61.55L186.262,61.408L186.274,61.266L186.292,61.125L186.316,60.984L186.345,60.845L186.379,60.707L186.419,60.57L186.464,60.435L186.515,60.302L186.57,60.17L186.631,60.042L186.697,59.915L186.768,59.792L186.843,59.671L186.923,59.553L187.008,59.439L187.097,59.327L187.191,59.22L187.288,59.116L187.39,59.016L187.495,58.921L187.604,58.829L187.717,58.742L187.833,58.659L187.952,58.581L188.074,58.508L188.199,58.439L188.327,58.376L188.456,58.317L188.589,58.264L188.723,58.216L188.858,58.173L188.996,58.135L189.135,58.103L189.275,58.077L189.415,58.056L189.557,58.04L189.699,58.03L189.842,58.026L189.984,58.027Z"/>
        </g>
        <g transform="matrix(1.37835,0,0,1.37835,-56.7531,-50.8931)">
            <path d="M205.692,55.878L205.848,55.89L206.003,55.91L206.157,55.936L206.309,55.968L206.46,56.007L206.61,56.053L206.757,56.105L206.902,56.163L207.044,56.227L207.183,56.298L207.319,56.374L207.452,56.456L207.581,56.544L207.706,56.637L207.827,56.736L207.944,56.839L208.056,56.948L208.164,57.061L208.266,57.179L208.363,57.301L208.455,57.428L208.541,57.558L208.622,57.691L208.697,57.828L208.766,57.968L208.829,58.111L208.885,58.257L208.936,58.404L208.979,58.554L209.017,58.706L209.048,58.859L209.072,59.013L209.089,59.168L209.1,59.324L209.105,59.48L209.102,59.636L209.092,59.905L209.047,60.328L208.93,60.957L208.761,61.572L208.566,62.146L208.351,62.693L208.121,63.224L207.879,63.742L207.625,64.258L207.125,65.22L206.633,66.132L206.193,66.946L205.866,67.578L205.853,67.622L205.832,67.717L205.808,67.851L205.789,67.994L205.749,68.457L205.731,68.981L205.734,69.577L205.758,70.226L205.797,70.902L205.915,72.35L206.05,73.782L206.165,75.131L206.205,75.801L206.219,76.354L206.219,76.51L206.213,76.666L206.2,76.822L206.18,76.977L206.154,77.13L206.121,77.283L206.082,77.434L206.036,77.583L205.984,77.73L205.925,77.875L205.861,78.017L205.79,78.156L205.713,78.292L205.631,78.425L205.543,78.554L205.449,78.679L205.351,78.8L205.247,78.916L205.138,79.028L205.024,79.135L204.906,79.237L204.784,79.334L204.657,79.426L204.527,79.512L204.393,79.592L204.256,79.667L204.116,79.736L203.973,79.798L203.827,79.854L203.68,79.904L203.53,79.948L203.378,79.985L203.225,80.016L203.071,80.039L202.916,80.057L202.76,80.067L202.604,80.071L202.448,80.068L202.292,80.059L202.137,80.042L201.982,80.02L201.829,79.99L201.677,79.954L201.527,79.911L201.379,79.862L201.233,79.807L201.089,79.745L200.949,79.677L200.811,79.604L200.677,79.524L200.546,79.439L200.419,79.348L200.296,79.252L200.177,79.151L200.063,79.044L199.954,78.933L199.849,78.817L199.749,78.697L199.655,78.573L199.566,78.444L199.483,78.312L199.405,78.177L199.334,78.038L199.268,77.896L199.209,77.752L199.156,77.605L199.109,77.456L199.069,77.305L199.035,77.153L199.008,76.999L198.987,76.845L198.973,76.689L198.966,76.533L198.955,76.105L198.929,75.655L198.824,74.432L198.688,72.984L198.559,71.408L198.51,70.568L198.48,69.727L198.475,68.878L198.504,68.022L198.576,67.191L198.64,66.726L198.719,66.281L198.821,65.828L198.953,65.363L199.124,64.884L199.321,64.44L199.78,63.554L200.248,62.687L200.713,61.825L201.151,60.982L201.337,60.604L201.505,60.245L201.644,59.922L201.752,59.649L201.822,59.443L201.854,59.327L201.854,59.324L201.861,59.206L201.877,59.051L201.9,58.896L201.929,58.743L201.965,58.591L202.007,58.441L202.056,58.292L202.111,58.146L202.172,58.003L202.24,57.862L202.313,57.724L202.393,57.59L202.478,57.459L202.568,57.332L202.664,57.208L202.765,57.09L202.871,56.975L202.982,56.865L203.098,56.76L203.218,56.661L203.342,56.566L203.47,56.477L203.602,56.393L203.737,56.316L203.876,56.244L204.018,56.178L204.162,56.118L204.308,56.065L204.457,56.018L204.608,55.977L204.76,55.943L204.914,55.915L205.069,55.894L205.224,55.88L205.38,55.873L205.536,55.872L205.692,55.878Z"/>
        </g>
        <g transform="matrix(1.37835,0,0,1.37835,-56.7531,-50.8931)">
            <path d="M219.451,60.268L219.594,60.277L219.735,60.291L219.876,60.311L220.016,60.337L220.155,60.368L220.293,60.405L220.429,60.446L220.564,60.494L220.696,60.546L220.826,60.604L220.954,60.666L221.08,60.734L221.202,60.806L221.322,60.884L221.439,60.966L221.552,61.052L221.662,61.143L221.768,61.238L221.87,61.337L221.968,61.44L222.063,61.547L222.152,61.657L222.238,61.771L222.319,61.888L222.395,62.009L222.467,62.132L222.534,62.258L222.595,62.386L222.652,62.517L222.703,62.65L222.749,62.784L222.79,62.921L222.826,63.059L222.856,63.198L222.88,63.338L222.899,63.479L222.913,63.621L222.92,63.763L222.923,63.906L222.919,64.048L222.894,64.631L222.803,65.348L222.661,66.035L222.477,66.691L222.258,67.314L222.011,67.907L221.742,68.471L221.457,69.01L221.159,69.526L220.853,70.021L220.542,70.499L220.223,70.968L219.606,71.839L218.997,72.68L218.424,73.482L217.892,74.268L217.664,74.625L217.447,74.985L217.25,75.335L217.075,75.675L216.921,76.002L216.789,76.319L216.679,76.623L216.591,76.917L216.523,77.201L216.476,77.477L216.447,77.75L216.433,78.152L216.425,78.295L216.412,78.436L216.393,78.578L216.368,78.718L216.338,78.857L216.303,78.995L216.262,79.132L216.216,79.266L216.164,79.399L216.108,79.53L216.046,79.658L215.98,79.784L215.908,79.907L215.832,80.028L215.751,80.145L215.665,80.259L215.575,80.369L215.481,80.476L215.383,80.579L215.281,80.678L215.174,80.773L215.065,80.864L214.951,80.951L214.835,81.032L214.715,81.11L214.593,81.182L214.467,81.25L214.339,81.313L214.209,81.37L214.077,81.423L213.942,81.47L213.806,81.512L213.668,81.548L213.529,81.579L213.389,81.605L213.248,81.625L213.107,81.64L212.964,81.649L212.822,81.652L212.68,81.65L212.537,81.642L212.396,81.628L212.254,81.61L212.114,81.585L211.975,81.555L211.837,81.52L211.7,81.479L211.566,81.433L211.433,81.381L211.302,81.325L211.174,81.263L211.048,81.197L210.925,81.125L210.804,81.049L210.687,80.968L210.573,80.882L210.463,80.792L210.356,80.698L210.253,80.6L210.154,80.497L210.059,80.391L209.968,80.282L209.881,80.168L209.799,80.052L209.722,79.932L209.65,79.81L209.582,79.684L209.519,79.556L209.462,79.426L209.409,79.294L209.362,79.159L209.32,79.023L209.284,78.885L209.253,78.746L209.227,78.606L209.207,78.465L209.192,78.324L209.183,78.181L209.18,78.039L209.182,77.897L209.205,77.243L209.285,76.481L209.413,75.743L209.582,75.032L209.787,74.348L210.024,73.692L210.285,73.064L210.568,72.462L210.866,71.886L211.177,71.334L211.496,70.804L211.829,70.282L212.468,69.339L213.106,68.446L213.707,67.615L214.262,66.831L214.503,66.477L214.728,66.133L214.929,65.807L215.106,65.5L215.257,65.214L215.382,64.951L215.482,64.713L215.556,64.502L215.608,64.316L215.641,64.156L215.659,64.017L215.671,63.736L215.68,63.594L215.694,63.452L215.715,63.311L215.74,63.171L215.771,63.032L215.808,62.894L215.85,62.758L215.897,62.624L215.949,62.491L216.007,62.361L216.069,62.233L216.137,62.108L216.209,61.985L216.287,61.865L216.369,61.749L216.455,61.636L216.546,61.526L216.641,61.42L216.74,61.317L216.843,61.219L216.95,61.125L217.06,61.035L217.174,60.949L217.291,60.868L217.412,60.792L217.535,60.72L217.661,60.654L217.789,60.592L217.92,60.535L218.053,60.484L218.187,60.438L218.324,60.397L218.462,60.362L218.601,60.332L218.741,60.307L218.883,60.288L219.024,60.275L219.167,60.267L219.309,60.265L219.451,60.268Z"/>
        </g>
        <g transform="matrix(1.32195,0,0,2.12844,-46.0945,-121.189)">
            <path d="M202.52,90.624L202.769,90.645L203.016,90.672L203.261,90.707L203.503,90.748L203.694,90.785L203.86,90.815L205.012,91.009L206.714,91.295L208.717,91.637L210.78,92.001L211.787,92.186L212.733,92.368L213.614,92.547L214.449,92.732L215.249,92.938L215.608,93.051L215.791,93.111L215.969,93.176L216.144,93.244L216.254,93.289L216.422,93.36L216.586,93.435L216.745,93.513L216.9,93.595L217.173,93.745L217.438,93.914L217.554,93.991L217.666,94.07L217.775,94.15L218.16,94.446L218.637,94.886L219.043,95.317L219.409,95.752L219.749,96.199L220.071,96.662L220.378,97.142L220.674,97.641L220.958,98.157L221.23,98.689L221.489,99.237L221.734,99.799L221.964,100.374L222.176,100.958L222.371,101.552L222.544,102.152L222.695,102.759L222.821,103.37L222.92,103.984L222.987,104.601L223.021,105.221L223.016,105.843L222.966,106.468L222.868,107.071L222.789,107.413L222.698,107.732L222.588,108.054L222.456,108.379L222.3,108.707L222.116,109.037L221.902,109.371L221.652,109.707L221.363,110.044L221.03,110.38L220.649,110.713L220.216,111.039L219.728,111.353L219.233,111.625L218.73,111.867L218.263,112.075L217.788,112.269L217.306,112.451L216.818,112.622L216.323,112.782L215.822,112.933L215.282,113.084L214.287,113.333L213.235,113.56L212.162,113.759L211.07,113.93L209.96,114.076L208.835,114.197L207.696,114.293L206.545,114.366L205.385,114.414L204.216,114.439L203.043,114.439L201.867,114.414L200.69,114.365L199.516,114.289L198.345,114.186L197.18,114.055L196.025,113.895L194.912,113.709L194.314,113.595L193.75,113.478L193.19,113.352L192.634,113.217L192.082,113.072L191.536,112.917L190.995,112.751L190.46,112.574L189.932,112.385L189.411,112.184L188.899,111.97L188.396,111.743L187.903,111.501L187.422,111.245L186.954,110.974L186.502,110.688L186.066,110.385L185.65,110.067L185.255,109.733L184.862,109.361L184.54,109.007L184.256,108.633L184.025,108.267L183.838,107.908L183.688,107.558L183.567,107.213L183.473,106.874L183.401,106.54L183.348,106.208L183.309,105.856L183.282,105.226L183.305,104.571L183.37,103.914L183.473,103.254L183.61,102.591L183.778,101.925L183.975,101.258L184.197,100.591L184.444,99.926L184.712,99.266L185.001,98.611L185.309,97.966L185.634,97.332L185.975,96.711L186.331,96.106L186.701,95.518L187.086,94.949L187.488,94.399L187.908,93.869L188.352,93.358L188.83,92.861L189.329,92.402L189.65,92.138L189.971,91.895L190.329,91.649L190.737,91.4L191.212,91.146L191.55,90.993L191.703,90.926L191.86,90.862L192.02,90.802L192.168,90.748L192.366,90.679L192.57,90.615L192.777,90.556L192.921,90.517L193.112,90.468L193.305,90.424L193.5,90.384L193.698,90.348L193.839,90.324L194.074,90.288L194.312,90.258L194.551,90.235L194.791,90.217L194.928,90.209L195.179,90.198L195.43,90.194L195.681,90.197L195.931,90.206L196.181,90.223L196.429,90.246L196.675,90.276L196.919,90.313L197.16,90.356L197.398,90.406L197.632,90.463L197.862,90.526L198.087,90.595L198.307,90.67L198.521,90.751L198.729,90.838L198.931,90.931L199.126,91.029L199.151,91.042L199.352,90.976L199.579,90.91L199.81,90.849L200.046,90.795L200.285,90.748L200.527,90.707L200.772,90.672L201.019,90.645L201.268,90.624L201.518,90.611L201.769,90.604L202.02,90.604L202.27,90.611L202.52,90.624ZM198.22,96.84L197.996,97.098L197.748,97.411L197.485,97.77L197.216,98.168L196.944,98.599L196.675,99.057L196.411,99.537L196.157,100.034L195.914,100.544L195.686,101.06L195.475,101.58L195.283,102.097L195.113,102.608L194.966,103.106L194.844,103.587L194.75,104.044L194.683,104.472L194.644,104.862L194.632,105.207L194.646,105.523L194.657,105.621L194.673,105.724L194.69,105.801L194.705,105.813L194.786,105.869L194.88,105.929L194.988,105.992L195.111,106.057L195.249,106.125L195.403,106.194L195.573,106.265L195.759,106.337L195.96,106.409L196.176,106.48L196.408,106.551L196.654,106.621L196.915,106.69L197.189,106.756L197.475,106.821L197.774,106.883L198.054,106.936L198.739,107.051L199.428,107.146L200.149,107.227L200.895,107.293L201.662,107.342L202.442,107.375L203.231,107.391L204.023,107.391L204.812,107.375L205.591,107.342L206.357,107.294L207.101,107.231L207.82,107.154L208.505,107.064L209.152,106.962L209.753,106.851L210.302,106.733L210.828,106.601L211.015,106.548L211.219,106.487L211.404,106.427L211.562,106.372L211.584,106.295L211.603,106.215L211.647,105.941L211.67,105.65L211.673,105.32L211.654,104.959L211.611,104.573L211.546,104.167L211.459,103.745L211.352,103.314L211.225,102.877L211.082,102.438L210.923,102.001L210.751,101.571L210.568,101.152L210.376,100.747L210.179,100.361L209.98,99.998L209.781,99.664L209.588,99.362L209.411,99.108L209.298,99.085L208.504,98.932L207.617,98.769L205.662,98.424L203.73,98.094L202.044,97.811L200.823,97.605L200.458,97.541L200.339,97.52L200.098,97.473L199.86,97.42L199.625,97.361L199.396,97.295L199.171,97.222L198.952,97.144L198.739,97.059L198.532,96.969L198.331,96.873L198.236,96.823L198.22,96.84ZM196.239,97.208L195.989,97.226L196.335,97.206L196.446,97.187L196.239,97.208Z" style="fill:white;"/>
        </g>
        <g transform="matrix(1.97931,0,0,2.14202,-108.397,-120.124)">
            <path d="M100.889,87.156L101.391,87.17L102.004,87.225L102.608,87.316L103.202,87.444L103.781,87.61L104.342,87.812L104.883,88.048L105.398,88.316L105.887,88.613L106.348,88.937L106.779,89.284L107.179,89.65L107.55,90.033L107.891,90.431L108.204,90.84L108.49,91.259L108.75,91.687L108.985,92.121L109.198,92.561L109.389,93.007L109.56,93.457L109.712,93.91L109.845,94.367L109.962,94.827L110.062,95.289L110.146,95.754L110.215,96.22L110.269,96.689L110.31,97.158L110.337,97.629L110.351,98.101L110.352,98.573L110.341,99.045L110.318,99.517L110.282,99.988L110.235,100.458L110.176,100.928L110.105,101.395L110.023,101.861L109.929,102.324L109.825,102.785L109.709,103.243L109.581,103.697L109.443,104.147L109.292,104.594L109.13,105.035L108.957,105.472L108.771,105.904L108.573,106.33L108.362,106.75L108.138,107.164L107.901,107.571L107.649,107.971L107.382,108.363L107.1,108.746L106.801,109.121L106.484,109.487L106.148,109.841L105.792,110.184L105.415,110.514L105.015,110.829L104.592,111.127L104.144,111.406L103.679,111.658L103.328,111.823L102.985,111.964L102.644,112.087L102.306,112.194L101.97,112.287L101.608,112.374L100.973,112.497L100.305,112.592L99.634,112.658L98.957,112.698L98.275,112.716L97.586,112.713L96.892,112.69L96.193,112.65L95.49,112.593L94.786,112.519L94.081,112.43L93.377,112.326L92.678,112.207L91.983,112.074L91.296,111.926L90.618,111.765L89.951,111.589L89.296,111.399L88.655,111.194L88.029,110.972L87.417,110.733L86.82,110.472L86.237,110.186L85.694,109.884L85.39,109.697L85.112,109.511L84.836,109.312L84.563,109.096L84.292,108.861L84.025,108.603L83.764,108.318L83.512,108.002L83.273,107.65L83.074,107.295L82.871,106.862L82.707,106.458L82.565,106.051L82.444,105.642L82.345,105.231L82.267,104.821L82.209,104.412L82.17,104.005L82.15,103.6L82.147,103.198L82.161,102.799L82.191,102.405L82.236,102.015L82.295,101.629L82.368,101.247L82.454,100.87L82.552,100.498L82.661,100.131L82.782,99.768L82.913,99.41L83.054,99.058L83.204,98.71L83.364,98.366L83.532,98.028L83.708,97.695L83.893,97.366L84.085,97.043L84.295,96.708L84.704,96.102L85.15,95.501L85.62,94.92L86.114,94.361L86.628,93.825L87.163,93.312L87.717,92.823L88.29,92.36L88.882,91.924L89.472,91.529L89.804,91.324L90.121,91.139L90.444,90.962L90.772,90.794L91.106,90.634L91.446,90.483L91.792,90.342L92.145,90.212L92.506,90.092L92.874,89.984L93.25,89.889L93.635,89.808L94.028,89.742L94.431,89.693L94.842,89.662L95.156,89.654L95.331,89.653L95.506,89.66L95.68,89.674L95.853,89.696L96.026,89.725L96.196,89.761L96.365,89.805L96.531,89.855L96.695,89.913L96.855,89.978L97.012,90.049L97.037,90.062L97.07,89.906L97.111,89.749L97.161,89.593L97.218,89.44L97.282,89.29L97.354,89.143L97.433,88.998L97.52,88.858L97.613,88.721L97.713,88.588L97.82,88.46L97.933,88.336L98.052,88.218L98.176,88.104L98.307,87.996L98.442,87.894L98.583,87.797L98.728,87.707L98.878,87.623L99.031,87.545L99.188,87.474L99.349,87.41L99.513,87.353L99.679,87.303L99.848,87.26L100.019,87.224L100.191,87.196L100.365,87.175L100.539,87.161L100.714,87.155L100.889,87.156ZM98.972,93.861L98.933,94.018L98.886,94.174L98.831,94.328L98.768,94.479L98.699,94.627L98.621,94.772L98.537,94.914L98.445,95.052L98.347,95.186L98.242,95.315L98.131,95.44L98.014,95.56L97.891,95.675L97.762,95.785L97.628,95.889L97.488,95.987L97.344,96.079L97.196,96.164L97.044,96.244L96.887,96.317L96.727,96.383L96.564,96.442L96.399,96.494L96.231,96.539L96.06,96.577L95.889,96.607L95.715,96.63L95.541,96.646L95.366,96.654L95.255,96.657L95.236,96.658L95.202,96.663L95.154,96.671L95.093,96.684L95.018,96.702L94.932,96.728L94.835,96.76L94.728,96.799L94.612,96.847L94.488,96.901L94.357,96.964L94.22,97.034L94.078,97.112L93.931,97.198L93.8,97.279L93.469,97.5L93.152,97.735L92.83,97.994L92.51,98.276L92.195,98.579L91.888,98.899L91.592,99.234L91.311,99.581L91.047,99.937L90.791,100.316L90.687,100.482L90.579,100.665L90.476,100.848L90.379,101.03L90.289,101.211L90.206,101.391L90.129,101.569L90.058,101.745L89.995,101.918L89.938,102.088L89.889,102.255L89.846,102.417L89.81,102.575L89.781,102.729L89.758,102.877L89.741,103.02L89.731,103.158L89.726,103.29L89.727,103.415L89.733,103.535L89.744,103.65L89.76,103.759L89.779,103.862L89.803,103.962L89.816,104.003L89.969,104.088L90.215,104.209L90.516,104.34L90.863,104.476L91.251,104.614L91.674,104.749L92.126,104.88L92.603,105.006L93.099,105.124L93.611,105.234L94.134,105.334L94.663,105.424L95.195,105.503L95.725,105.57L96.248,105.625L96.761,105.666L97.259,105.695L97.736,105.71L98.188,105.712L98.609,105.702L98.992,105.679L99.33,105.646L99.615,105.605L99.871,105.556L99.929,105.542L99.995,105.523L100.041,105.509L100.054,105.504L100.104,105.477L100.174,105.433L100.256,105.375L100.349,105.303L100.45,105.214L100.558,105.11L100.673,104.988L100.792,104.851L100.915,104.698L101.039,104.529L101.164,104.345L101.289,104.147L101.412,103.935L101.534,103.711L101.652,103.475L101.767,103.228L101.877,102.971L101.983,102.705L102.084,102.43L102.179,102.148L102.268,101.86L102.35,101.565L102.426,101.266L102.495,100.963L102.557,100.657L102.611,100.349L102.658,100.039L102.697,99.729L102.728,99.42L102.751,99.112L102.767,98.806L102.774,98.503L102.773,98.205L102.764,97.911L102.748,97.624L102.723,97.343L102.692,97.07L102.653,96.806L102.606,96.552L102.554,96.309L102.495,96.077L102.431,95.857L102.362,95.651L102.289,95.459L102.213,95.282L102.135,95.12L102.056,94.974L101.976,94.843L101.898,94.729L101.823,94.63L101.751,94.546L101.683,94.476L101.619,94.418L101.56,94.37L101.505,94.332L101.452,94.3L101.4,94.272L101.345,94.248L101.284,94.226L101.214,94.206L101.131,94.188L101.032,94.173L100.912,94.163L100.654,94.155L100.479,94.147L100.305,94.13L100.131,94.107L99.96,94.076L99.79,94.038L99.622,93.992L99.456,93.939L99.293,93.88L99.134,93.813L98.994,93.748L98.972,93.861Z" style="fill:white;"/>
        </g>
        <g transform="matrix(0.995502,-0.0947383,0.0947383,0.995502,-2.00387,3.81057)">
            <path d="M226.932,181.055L227.622,181.235L228.293,181.481L228.936,181.789L229.548,182.156L230.122,182.581L230.653,183.058L231.136,183.583L231.567,184.152L231.942,184.759L232.258,185.399L232.512,186.066L232.7,186.755L232.823,187.458L232.878,188.169L232.865,188.883L232.85,189.118L232.811,189.537L232.748,189.953L232.703,190.204L232.552,190.869L232.405,191.402L232.136,192.157L231.849,192.832L231.519,193.509L230.935,194.543L230.283,195.548L229.611,196.486L228.924,197.377L228.227,198.23L227.528,199.045L226.821,199.84L225.524,201.235L224.37,202.427L223.564,203.239L223.272,203.55L223.04,203.825L222.784,204.158L222.505,204.55L222.204,205.001L221.889,205.496L221.154,206.699L220.351,208.017L219.878,208.763L219.366,209.532L218.801,210.33L218.173,211.149L217.471,211.983L216.726,212.776L215.486,213.981L214.267,215.09L213.038,216.143L211.801,217.141L210.561,218.09L209.319,218.994L208.077,219.857L206.838,220.685L205.603,221.482L204.362,222.26L201.943,223.731L199.533,225.171L197.104,226.632L195.97,227.313L194.778,228.006L193.569,228.69L192.343,229.362L191.099,230.024L189.84,230.675L188.564,231.315L187.273,231.943L185.967,232.559L184.647,233.163L183.312,233.754L181.964,234.332L180.603,234.898L179.229,235.449L177.843,235.987L176.446,236.511L175.037,237.02L173.618,237.514L172.188,237.993L170.749,238.456L169.3,238.904L167.843,239.335L166.377,239.749L164.904,240.146L163.423,240.526L161.935,240.888L160.441,241.232L158.94,241.557L157.435,241.863L155.924,242.15L154.409,242.417L152.89,242.663L151.367,242.889L149.841,243.094L148.313,243.277L146.782,243.438L145.25,243.577L143.716,243.693L142.182,243.785L140.648,243.854L139.113,243.898L137.58,243.918L136.047,243.912L134.516,243.881L132.988,243.823L131.462,243.738L129.939,243.626L128.42,243.487L126.905,243.318L125.395,243.121L123.89,242.894L122.392,242.637L120.899,242.349L119.414,242.029L117.937,241.678L116.468,241.294L115.008,240.878L113.557,240.427L112.118,239.942L110.689,239.422L109.273,238.867L107.869,238.275L106.479,237.647L105.123,236.991L102.969,235.894L100.854,234.776L98.758,233.629L96.68,232.453L94.622,231.249L92.581,230.018L90.558,228.76L88.551,227.476L86.56,226.166L84.585,224.832L82.626,223.473L80.68,222.09L78.749,220.684L76.83,219.255L74.924,217.805L73.034,216.335L71.335,214.991L69.664,213.646L68.014,212.294L66.385,210.933L64.775,209.56L63.184,208.171L61.611,206.764L60.054,205.337L58.513,203.886L56.987,202.408L55.475,200.903L53.977,199.365L52.491,197.795L51.017,196.188L49.553,194.542L48.173,192.94L47.818,192.541L47.445,192.147L46.365,191.062L45.099,189.791L44.377,189.035L43.64,188.224L42.89,187.339L42.138,186.367L41.44,185.35L41.05,184.716L40.703,184.098L40.371,183.443L40.059,182.748L39.773,182.009L39.52,181.226L39.308,180.398L39.145,179.526L39.042,178.616L39.017,177.965L39.023,177.252L39.097,176.542L39.239,175.842L39.446,175.159L39.717,174.499L40.05,173.868L40.441,173.271L40.887,172.714L41.385,172.202L41.928,171.739L42.513,171.33L43.135,170.979L43.786,170.689L44.463,170.461L45.158,170.299L45.865,170.204L46.579,170.177L47.291,170.217L47.997,170.325L48.689,170.499L49.361,170.739L50.008,171.041L50.623,171.404L51.2,171.823L51.735,172.295L52.223,172.816L52.659,173.381L53.04,173.985L53.361,174.622L53.62,175.287L53.815,175.974L53.944,176.676L53.981,177.109L53.984,177.113L54.02,177.172L54.262,177.524L54.55,177.896L54.917,178.329L55.353,178.809L55.837,179.316L56.995,180.478L58.207,181.697L58.876,182.403L59.465,183.067L60.839,184.661L62.148,186.133L63.466,187.57L64.796,188.975L66.139,190.353L67.497,191.705L68.872,193.036L70.265,194.349L71.679,195.645L73.115,196.929L74.576,198.204L76.062,199.472L77.575,200.737L79.118,202L80.691,203.266L82.292,204.533L84.071,205.915L85.853,207.272L87.642,208.605L89.439,209.913L91.245,211.196L93.059,212.454L94.883,213.687L96.716,214.893L98.56,216.073L100.415,217.226L102.282,218.353L104.161,219.451L106.053,220.522L107.959,221.565L109.878,222.579L111.794,223.555L112.833,224.058L113.87,224.527L114.923,224.97L115.992,225.39L117.077,225.784L118.178,226.155L119.293,226.502L120.423,226.824L121.567,227.123L122.725,227.399L123.897,227.65L125.081,227.879L126.278,228.084L127.486,228.267L128.706,228.426L129.937,228.563L131.177,228.677L132.427,228.769L133.686,228.839L134.954,228.887L136.229,228.913L137.512,228.918L138.8,228.901L140.095,228.864L141.395,228.806L142.7,228.727L144.008,228.628L145.32,228.509L146.635,228.371L147.951,228.213L149.269,228.036L150.588,227.84L151.907,227.626L153.225,227.394L154.542,227.144L155.858,226.877L157.171,226.592L158.48,226.291L159.786,225.973L161.088,225.64L162.384,225.29L163.675,224.925L164.96,224.545L166.237,224.151L167.507,223.742L168.769,223.319L170.022,222.883L171.265,222.434L172.498,221.971L173.721,221.497L174.932,221.011L176.13,220.513L177.317,220.004L178.489,219.484L179.648,218.955L180.793,218.415L181.921,217.866L183.034,217.308L184.131,216.741L185.21,216.166L186.271,215.584L187.314,214.995L188.338,214.399L189.38,213.774L191.821,212.305L194.199,210.885L196.479,209.498L197.552,208.825L198.606,208.145L199.629,207.462L200.624,206.77L201.59,206.067L202.53,205.348L203.445,204.609L204.337,203.845L205.209,203.052L206.027,202.257L206.258,202.011L206.478,201.749L206.727,201.425L207.001,201.039L207.298,200.591L207.612,200.096L208.348,198.889L209.158,197.562L209.637,196.809L210.154,196.034L210.726,195.231L211.361,194.406L212.069,193.568L212.772,192.819L213.658,191.926L214.642,190.911L215.722,189.749L216.228,189.18L216.724,188.601L217.178,188.046L217.572,187.535L217.886,187.096L218.053,186.839L218.126,186.495L218.339,185.814L218.616,185.156L218.954,184.528L219.351,183.934L219.802,183.381L220.303,182.873L220.851,182.416L221.44,182.012L222.064,181.666L222.719,181.381L223.397,181.16L224.094,181.004L224.802,180.915L225.515,180.894L226.227,180.94L226.932,181.055ZM217.91,187.717L217.898,187.902L217.934,187.583L217.91,187.717Z" style="fill:white;"/>
        </g>
    </g>
</svg>
